<mxfile host="app.diagrams.net" modified="2023-12-21T03:49:13.941Z" agent="Mozilla/5.0 (Windows NT 10.0; Win64; x64) AppleWebKit/537.36 (KHTML, like Gecko) Chrome/120.0.0.0 Safari/537.36 Edg/120.0.0.0" etag="6C3YhKKbjDUYsYUPOjKe" version="22.1.11" type="device">
  <diagram name="Trang-1" id="l152BuuuqlZldC5hCcB0">
    <mxGraphModel dx="1236" dy="590" grid="1" gridSize="10" guides="1" tooltips="1" connect="1" arrows="1" fold="1" page="1" pageScale="1" pageWidth="827" pageHeight="1169" math="0" shadow="0">
      <root>
        <mxCell id="0" />
        <mxCell id="1" parent="0" />
        <mxCell id="w1_bkRWYWX7Zsv86zNrW-1" value="" style="shape=umlLifeline;perimeter=lifelinePerimeter;whiteSpace=wrap;html=1;container=1;dropTarget=0;collapsible=0;recursiveResize=0;outlineConnect=0;portConstraint=eastwest;newEdgeStyle={&quot;curved&quot;:0,&quot;rounded&quot;:0};participant=umlActor;" parent="1" vertex="1">
          <mxGeometry x="150" y="80" width="40" height="560" as="geometry" />
        </mxCell>
        <mxCell id="w1_bkRWYWX7Zsv86zNrW-2" value="" style="html=1;points=[[0,0,0,0,5],[0,1,0,0,-5],[1,0,0,0,5],[1,1,0,0,-5]];perimeter=orthogonalPerimeter;outlineConnect=0;targetShapes=umlLifeline;portConstraint=eastwest;newEdgeStyle={&quot;curved&quot;:0,&quot;rounded&quot;:0};" parent="w1_bkRWYWX7Zsv86zNrW-1" vertex="1">
          <mxGeometry x="15" y="80" width="10" height="480" as="geometry" />
        </mxCell>
        <mxCell id="w1_bkRWYWX7Zsv86zNrW-3" value="" style="shape=umlLifeline;perimeter=lifelinePerimeter;whiteSpace=wrap;html=1;container=1;dropTarget=0;collapsible=0;recursiveResize=0;outlineConnect=0;portConstraint=eastwest;newEdgeStyle={&quot;curved&quot;:0,&quot;rounded&quot;:0};participant=umlBoundary;" parent="1" vertex="1">
          <mxGeometry x="310" y="80" width="50" height="520" as="geometry" />
        </mxCell>
        <mxCell id="w1_bkRWYWX7Zsv86zNrW-4" value="" style="html=1;points=[[0,0,0,0,5],[0,1,0,0,-5],[1,0,0,0,5],[1,1,0,0,-5]];perimeter=orthogonalPerimeter;outlineConnect=0;targetShapes=umlLifeline;portConstraint=eastwest;newEdgeStyle={&quot;curved&quot;:0,&quot;rounded&quot;:0};" parent="w1_bkRWYWX7Zsv86zNrW-3" vertex="1">
          <mxGeometry x="20" y="90" width="10" height="130" as="geometry" />
        </mxCell>
        <mxCell id="w1_bkRWYWX7Zsv86zNrW-5" value="Người dùng" style="text;html=1;strokeColor=none;fillColor=none;align=center;verticalAlign=middle;whiteSpace=wrap;rounded=0;" parent="1" vertex="1">
          <mxGeometry x="135" y="120" width="70" height="30" as="geometry" />
        </mxCell>
        <mxCell id="w1_bkRWYWX7Zsv86zNrW-6" value="view dashboard" style="text;html=1;strokeColor=none;fillColor=none;align=center;verticalAlign=middle;whiteSpace=wrap;rounded=0;" parent="1" vertex="1">
          <mxGeometry x="290" y="120" width="90" height="30" as="geometry" />
        </mxCell>
        <mxCell id="w1_bkRWYWX7Zsv86zNrW-7" value="" style="shape=umlLifeline;perimeter=lifelinePerimeter;whiteSpace=wrap;html=1;container=1;dropTarget=0;collapsible=0;recursiveResize=0;outlineConnect=0;portConstraint=eastwest;newEdgeStyle={&quot;curved&quot;:0,&quot;rounded&quot;:0};participant=umlBoundary;" parent="1" vertex="1">
          <mxGeometry x="475" y="80" width="50" height="530" as="geometry" />
        </mxCell>
        <mxCell id="w1_bkRWYWX7Zsv86zNrW-8" value="" style="html=1;points=[[0,0,0,0,5],[0,1,0,0,-5],[1,0,0,0,5],[1,1,0,0,-5]];perimeter=orthogonalPerimeter;outlineConnect=0;targetShapes=umlLifeline;portConstraint=eastwest;newEdgeStyle={&quot;curved&quot;:0,&quot;rounded&quot;:0};" parent="w1_bkRWYWX7Zsv86zNrW-7" vertex="1">
          <mxGeometry x="20" y="170" width="10" height="70" as="geometry" />
        </mxCell>
        <mxCell id="w1_bkRWYWX7Zsv86zNrW-9" value="view người dùng" style="text;html=1;strokeColor=none;fillColor=none;align=center;verticalAlign=middle;whiteSpace=wrap;rounded=0;" parent="1" vertex="1">
          <mxGeometry x="455" y="120" width="100" height="30" as="geometry" />
        </mxCell>
        <mxCell id="w1_bkRWYWX7Zsv86zNrW-10" value="Chọn hình avatar&amp;nbsp;" style="html=1;verticalAlign=bottom;endArrow=block;curved=0;rounded=0;" parent="1" target="w1_bkRWYWX7Zsv86zNrW-4" edge="1">
          <mxGeometry width="80" relative="1" as="geometry">
            <mxPoint x="175" y="200" as="sourcePoint" />
            <mxPoint x="310" y="200" as="targetPoint" />
          </mxGeometry>
        </mxCell>
        <mxCell id="w1_bkRWYWX7Zsv86zNrW-12" value="HIển thị thông tin người dùng" style="html=1;verticalAlign=bottom;endArrow=block;curved=0;rounded=0;" parent="1" target="w1_bkRWYWX7Zsv86zNrW-8" edge="1">
          <mxGeometry width="80" relative="1" as="geometry">
            <mxPoint x="340" y="262" as="sourcePoint" />
            <mxPoint x="490" y="262" as="targetPoint" />
          </mxGeometry>
        </mxCell>
        <mxCell id="w1_bkRWYWX7Zsv86zNrW-13" value="Nhập thông tin cần sửa" style="html=1;verticalAlign=bottom;endArrow=block;curved=0;rounded=0;exitX=1;exitY=1;exitDx=0;exitDy=-5;exitPerimeter=0;" parent="1" source="w1_bkRWYWX7Zsv86zNrW-4" target="w1_bkRWYWX7Zsv86zNrW-8" edge="1">
          <mxGeometry width="80" relative="1" as="geometry">
            <mxPoint x="350" y="272" as="sourcePoint" />
            <mxPoint x="490" y="295" as="targetPoint" />
          </mxGeometry>
        </mxCell>
        <mxCell id="w1_bkRWYWX7Zsv86zNrW-14" value=":Database&lt;br&gt;" style="shape=umlLifeline;perimeter=lifelinePerimeter;whiteSpace=wrap;html=1;container=1;dropTarget=0;collapsible=0;recursiveResize=0;outlineConnect=0;portConstraint=eastwest;newEdgeStyle={&quot;curved&quot;:0,&quot;rounded&quot;:0};size=70;" parent="1" vertex="1">
          <mxGeometry x="880" y="80" width="100" height="530" as="geometry" />
        </mxCell>
        <mxCell id="w1_bkRWYWX7Zsv86zNrW-15" value="" style="html=1;points=[[0,0,0,0,5],[0,1,0,0,-5],[1,0,0,0,5],[1,1,0,0,-5]];perimeter=orthogonalPerimeter;outlineConnect=0;targetShapes=umlLifeline;portConstraint=eastwest;newEdgeStyle={&quot;curved&quot;:0,&quot;rounded&quot;:0};" parent="w1_bkRWYWX7Zsv86zNrW-14" vertex="1">
          <mxGeometry x="45" y="220" width="10" height="90" as="geometry" />
        </mxCell>
        <mxCell id="w1_bkRWYWX7Zsv86zNrW-16" value="" style="shape=umlLifeline;perimeter=lifelinePerimeter;whiteSpace=wrap;html=1;container=1;dropTarget=0;collapsible=0;recursiveResize=0;outlineConnect=0;portConstraint=eastwest;newEdgeStyle={&quot;curved&quot;:0,&quot;rounded&quot;:0};participant=umlControl;" parent="1" vertex="1">
          <mxGeometry x="737" y="80" width="40" height="530" as="geometry" />
        </mxCell>
        <mxCell id="w1_bkRWYWX7Zsv86zNrW-17" value="" style="html=1;points=[[0,0,0,0,5],[0,1,0,0,-5],[1,0,0,0,5],[1,1,0,0,-5]];perimeter=orthogonalPerimeter;outlineConnect=0;targetShapes=umlLifeline;portConstraint=eastwest;newEdgeStyle={&quot;curved&quot;:0,&quot;rounded&quot;:0};" parent="w1_bkRWYWX7Zsv86zNrW-16" vertex="1">
          <mxGeometry x="15" y="210" width="10" height="50" as="geometry" />
        </mxCell>
        <mxCell id="w1_bkRWYWX7Zsv86zNrW-27" value="" style="html=1;points=[[0,0,0,0,5],[0,1,0,0,-5],[1,0,0,0,5],[1,1,0,0,-5]];perimeter=orthogonalPerimeter;outlineConnect=0;targetShapes=umlLifeline;portConstraint=eastwest;newEdgeStyle={&quot;curved&quot;:0,&quot;rounded&quot;:0};" parent="w1_bkRWYWX7Zsv86zNrW-16" vertex="1">
          <mxGeometry x="15" y="290" width="10" height="20" as="geometry" />
        </mxCell>
        <mxCell id="w1_bkRWYWX7Zsv86zNrW-18" value="controller người dùng" style="text;html=1;align=center;verticalAlign=middle;resizable=0;points=[];autosize=1;strokeColor=none;fillColor=none;" parent="1" vertex="1">
          <mxGeometry x="687" y="120" width="140" height="30" as="geometry" />
        </mxCell>
        <mxCell id="w1_bkRWYWX7Zsv86zNrW-20" value="Tạo truy vấn xử lý yêu cầu sửa thông tin" style="html=1;verticalAlign=bottom;endArrow=block;curved=0;rounded=0;exitX=1;exitY=1;exitDx=0;exitDy=-5;exitPerimeter=0;" parent="1" source="w1_bkRWYWX7Zsv86zNrW-8" target="w1_bkRWYWX7Zsv86zNrW-17" edge="1">
          <mxGeometry width="80" relative="1" as="geometry">
            <mxPoint x="570" y="330" as="sourcePoint" />
            <mxPoint x="670" y="305" as="targetPoint" />
          </mxGeometry>
        </mxCell>
        <mxCell id="w1_bkRWYWX7Zsv86zNrW-21" value="alt" style="shape=umlFrame;whiteSpace=wrap;html=1;pointerEvents=0;" parent="1" vertex="1">
          <mxGeometry x="10" y="400" width="990" height="199" as="geometry" />
        </mxCell>
        <mxCell id="w1_bkRWYWX7Zsv86zNrW-22" value="" style="endArrow=none;dashed=1;html=1;rounded=0;entryX=1.004;entryY=0.32;entryDx=0;entryDy=0;entryPerimeter=0;" parent="1" edge="1">
          <mxGeometry width="50" height="50" relative="1" as="geometry">
            <mxPoint x="6" y="480" as="sourcePoint" />
            <mxPoint x="1003.96" y="474.79999999999995" as="targetPoint" />
            <Array as="points" />
          </mxGeometry>
        </mxCell>
        <mxCell id="w1_bkRWYWX7Zsv86zNrW-23" value="invalid" style="text;html=1;align=center;verticalAlign=middle;resizable=0;points=[];autosize=1;strokeColor=none;fillColor=none;" parent="1" vertex="1">
          <mxGeometry x="70" y="429" width="60" height="30" as="geometry" />
        </mxCell>
        <mxCell id="w1_bkRWYWX7Zsv86zNrW-24" value="valid" style="text;html=1;align=center;verticalAlign=middle;resizable=0;points=[];autosize=1;strokeColor=none;fillColor=none;" parent="1" vertex="1">
          <mxGeometry x="75" y="489" width="50" height="30" as="geometry" />
        </mxCell>
        <mxCell id="w1_bkRWYWX7Zsv86zNrW-25" value="Kiểm tra các giá trị phù hợp" style="html=1;verticalAlign=bottom;endArrow=block;curved=0;rounded=0;exitX=1;exitY=1;exitDx=0;exitDy=-5;exitPerimeter=0;" parent="1" source="w1_bkRWYWX7Zsv86zNrW-17" target="w1_bkRWYWX7Zsv86zNrW-15" edge="1">
          <mxGeometry width="80" relative="1" as="geometry">
            <mxPoint x="755" y="320" as="sourcePoint" />
            <mxPoint x="925" y="335" as="targetPoint" />
          </mxGeometry>
        </mxCell>
        <mxCell id="w1_bkRWYWX7Zsv86zNrW-26" value="Trả về kết quả" style="html=1;verticalAlign=bottom;startArrow=none;startFill=0;endArrow=open;startSize=8;rounded=0;dashed=1;endFill=0;entryX=1;entryY=0;entryDx=0;entryDy=5;entryPerimeter=0;" parent="1" source="w1_bkRWYWX7Zsv86zNrW-15" target="w1_bkRWYWX7Zsv86zNrW-27" edge="1">
          <mxGeometry x="0.0017" width="60" relative="1" as="geometry">
            <mxPoint x="935" y="378" as="sourcePoint" />
            <mxPoint x="350" y="378" as="targetPoint" />
            <mxPoint as="offset" />
          </mxGeometry>
        </mxCell>
        <mxCell id="w1_bkRWYWX7Zsv86zNrW-28" value="" style="html=1;points=[[0,0,0,0,5],[0,1,0,0,-5],[1,0,0,0,5],[1,1,0,0,-5]];perimeter=orthogonalPerimeter;outlineConnect=0;targetShapes=umlLifeline;portConstraint=eastwest;newEdgeStyle={&quot;curved&quot;:0,&quot;rounded&quot;:0};" parent="1" vertex="1">
          <mxGeometry x="495" y="429" width="10" height="24" as="geometry" />
        </mxCell>
        <mxCell id="w1_bkRWYWX7Zsv86zNrW-29" value="Đưa ra thông báo lỗi" style="html=1;verticalAlign=bottom;startArrow=none;startFill=0;endArrow=open;startSize=8;rounded=0;dashed=1;endFill=0;entryX=1;entryY=0;entryDx=0;entryDy=5;entryPerimeter=0;" parent="1" source="w1_bkRWYWX7Zsv86zNrW-34" target="w1_bkRWYWX7Zsv86zNrW-28" edge="1">
          <mxGeometry x="0.0017" width="60" relative="1" as="geometry">
            <mxPoint x="940" y="440" as="sourcePoint" />
            <mxPoint x="650" y="360" as="targetPoint" />
            <mxPoint as="offset" />
          </mxGeometry>
        </mxCell>
        <mxCell id="w1_bkRWYWX7Zsv86zNrW-30" value="" style="html=1;points=[[0,0,0,0,5],[0,1,0,0,-5],[1,0,0,0,5],[1,1,0,0,-5]];perimeter=orthogonalPerimeter;outlineConnect=0;targetShapes=umlLifeline;portConstraint=eastwest;newEdgeStyle={&quot;curved&quot;:0,&quot;rounded&quot;:0};" parent="1" vertex="1">
          <mxGeometry x="495" y="510" width="10" height="30" as="geometry" />
        </mxCell>
        <mxCell id="w1_bkRWYWX7Zsv86zNrW-31" value="Đưa ra thông báo thành công" style="html=1;verticalAlign=bottom;startArrow=none;startFill=0;endArrow=open;startSize=8;rounded=0;dashed=1;endFill=0;" parent="1" source="w1_bkRWYWX7Zsv86zNrW-34" target="w1_bkRWYWX7Zsv86zNrW-30" edge="1">
          <mxGeometry x="0.0017" width="60" relative="1" as="geometry">
            <mxPoint x="780" y="520" as="sourcePoint" />
            <mxPoint x="350" y="517" as="targetPoint" />
            <mxPoint as="offset" />
          </mxGeometry>
        </mxCell>
        <mxCell id="w1_bkRWYWX7Zsv86zNrW-32" value="Hiển thị lại thông tin người dùng sau khi sửa" style="html=1;verticalAlign=bottom;startArrow=none;startFill=0;endArrow=open;startSize=8;rounded=0;dashed=1;endFill=0;entryX=1;entryY=1;entryDx=0;entryDy=-5;entryPerimeter=0;" parent="1" source="w1_bkRWYWX7Zsv86zNrW-34" target="w1_bkRWYWX7Zsv86zNrW-33" edge="1">
          <mxGeometry x="-0.0598" y="-10" width="60" relative="1" as="geometry">
            <mxPoint x="935" y="584" as="sourcePoint" />
            <mxPoint x="360" y="527" as="targetPoint" />
            <mxPoint as="offset" />
          </mxGeometry>
        </mxCell>
        <mxCell id="w1_bkRWYWX7Zsv86zNrW-33" value="" style="html=1;points=[[0,0,0,0,5],[0,1,0,0,-5],[1,0,0,0,5],[1,1,0,0,-5]];perimeter=orthogonalPerimeter;outlineConnect=0;targetShapes=umlLifeline;portConstraint=eastwest;newEdgeStyle={&quot;curved&quot;:0,&quot;rounded&quot;:0};" parent="1" vertex="1">
          <mxGeometry x="495" y="555" width="10" height="30" as="geometry" />
        </mxCell>
        <mxCell id="w1_bkRWYWX7Zsv86zNrW-34" value="" style="html=1;points=[[0,0,0,0,5],[0,1,0,0,-5],[1,0,0,0,5],[1,1,0,0,-5]];perimeter=orthogonalPerimeter;outlineConnect=0;targetShapes=umlLifeline;portConstraint=eastwest;newEdgeStyle={&quot;curved&quot;:0,&quot;rounded&quot;:0};" parent="1" vertex="1">
          <mxGeometry x="752" y="419" width="10" height="170" as="geometry" />
        </mxCell>
      </root>
    </mxGraphModel>
  </diagram>
</mxfile>
